<svg width="12" height="12" fill="none" xmlns="http://www.w3.org/2000/svg"><mask id="mask0_18_270" style="mask-type:alpha" maskUnits="userSpaceOnUse" x="0" y="0" width="12" height="12"><circle cx="6" cy="6" r="6" fill="#D9D9D9"/></mask><g mask="url(#mask0_18_270)"><path d="M-6.947 10.316h29.684v7.369H-6.947v-7.369z" fill="#FFCE00"/><path d="M-6.947-4.42h29.684v7.368H-6.947v-7.369z" fill="#000"/><path d="M-6.947 2.947h29.684v7.369H-6.947V2.947z" fill="#D00"/><path d="M-2.526 0h16.962v12.632H-2.526V0z" fill="#012169"/><path d="M-.539 0l6.467 4.763L12.368 0h2.068v1.632l-6.361 4.71 6.36 4.684v1.606h-2.12l-6.36-4.71-6.335 4.71h-2.146v-1.58l6.334-4.684-6.334-4.684V0H-.54z" fill="#fff"/><path d="M8.711 7.395l5.725 4.184v1.053L7.253 7.395h1.458zm-4.877.526l.16.921-5.09 3.79h-1.43l6.36-4.71zM14.436 0v.079l-6.6 4.947.053-1.158L13.111 0h1.325zM-2.526 0l6.334 4.632h-1.59l-4.744-3.527V0z" fill="#C8102E"/><path d="M3.86 0v12.632h4.242V0H3.86zm-6.386 4.21v4.211h16.962v-4.21H-2.526z" fill="#fff"/><path d="M-2.526 5.079v2.526h16.962V5.08H-2.526zM4.709 0v12.632h2.544V0H4.71z" fill="#C8102E"/></g></svg>